<svg xmlns="http://www.w3.org/2000/svg" viewBox="0 0 495 104" width="495" height="104"><defs><linearGradient id="l-ramp" gradientUnits="userSpaceOnUse" x1="2" x2="58" y1="0" y2="0"><stop offset="0" stop-color="#fff" stop-opacity="0"/><stop offset="1" stop-color="#fff"/></linearGradient><mask id="l-fade" maskUnits="userSpaceOnUse" x="-8" y="-10" width="232" height="128"><rect x="-8" y="-10" width="232" height="128" fill="url(#l-ramp)"/></mask><filter id="l-glow" x="-20%" y="-50%" width="140%" height="200%"><feGaussianBlur stdDeviation="2.4"/></filter></defs><g fill="none" stroke-width="3" stroke-linecap="round" mask="url(#l-fade)" style="isolation:isolate"><g filter="url(#l-glow)" opacity="0.4" stroke-width="4.800000000000001"><path d="M2 62.56C3.1 63.51 4.19 64.46 5.29 65.39C6.39 66.32 7.49 67.24 8.58 68.12C9.68 69.01 10.78 69.88 11.88 70.7C12.97 71.53 14.07 72.32 15.17 73.07C16.26 73.81 17.36 74.52 18.46 75.16C19.56 75.81 20.65 76.4 21.75 76.94C22.85 77.47 23.94 77.94 25.04 78.35C26.14 78.75 27.24 79.09 28.33 79.36C29.43 79.63 30.53 79.83 31.63 79.96C32.72 80.09 33.82 80.14 34.92 80.13C36.01 80.11 37.11 80.03 38.21 79.87C39.31 79.71 40.4 79.48 41.5 79.19C42.6 78.89 43.69 78.53 44.79 78.11C45.89 77.69 46.99 77.21 48.08 76.68C49.18 76.14 50.28 75.56 51.38 74.92C52.47 74.29 53.57 73.62 54.67 72.9C55.76 72.19 56.86 71.45 57.96 70.67C59.06 69.9 60.15 69.11 61.25 68.3C62.35 67.49 63.44 66.67 64.54 65.84C65.64 65.01 66.74 64.18 67.83 63.36C68.93 62.54 70.03 61.72 71.13 60.93C72.22 60.13 73.32 59.35 74.42 58.59C75.51 57.84 76.61 57.11 77.71 56.41C78.81 55.72 79.9 55.06 81 54.43C82.1 53.81 83.19 53.22 84.29 52.68C85.39 52.14 86.49 51.65 87.58 51.19C88.68 50.74 89.78 50.34 90.88 49.98C91.97 49.62 93.07 49.31 94.17 49.05C95.26 48.78 96.36 48.57 97.46 48.39C98.56 48.22 99.65 48.09 100.75 48C101.85 47.92 102.94 47.87 104.04 47.86C105.14 47.85 106.24 47.87 107.33 47.93C108.43 47.99 109.53 48.07 110.63 48.19C111.72 48.3 112.82 48.44 113.92 48.59C115.01 48.75 116.11 48.92 117.21 49.11C118.31 49.3 119.4 49.5 120.5 49.7C121.6 49.91 122.69 50.12 123.79 50.33C124.89 50.54 125.99 50.76 127.08 50.96C128.18 51.17 129.28 51.38 130.38 51.58C131.47 51.77 132.57 51.96 133.67 52.14C134.76 52.32 135.86 52.48 136.96 52.64C138.06 52.79 139.15 52.93 140.25 53.06C141.35 53.18 142.44 53.3 143.54 53.4C144.64 53.49 145.74 53.58 146.83 53.65C147.93 53.72 149.03 53.78 150.13 53.83C151.22 53.87 152.32 53.91 153.42 53.93C154.51 53.96 155.61 53.98 156.71 53.99C157.81 54 158.9 54 160 54" stroke="rgb(255 149 141)" style="mix-blend-mode:screen"/><path d="M2 42.8C3.1 41.3 4.19 39.86 5.29 38.49C6.39 37.13 7.49 35.84 8.58 34.66C9.68 33.47 10.78 32.39 11.88 31.42C12.97 30.45 14.07 29.6 15.17 28.88C16.26 28.16 17.36 27.56 18.46 27.1C19.56 26.64 20.65 26.31 21.75 26.12C22.85 25.93 23.94 25.87 25.04 25.94C26.14 26.01 27.24 26.2 28.33 26.52C29.43 26.83 30.53 27.26 31.63 27.8C32.72 28.33 33.82 28.97 34.92 29.69C36.01 30.42 37.11 31.22 38.21 32.1C39.31 32.97 40.4 33.91 41.5 34.89C42.6 35.87 43.69 36.89 44.79 37.94C45.89 38.99 46.99 40.06 48.08 41.13C49.18 42.2 50.28 43.27 51.38 44.33C52.47 45.39 53.57 46.43 54.67 47.44C55.76 48.45 56.86 49.42 57.96 50.36C59.06 51.29 60.15 52.17 61.25 53.01C62.35 53.84 63.44 54.62 64.54 55.34C65.64 56.05 66.74 56.71 67.83 57.3C68.93 57.9 70.03 58.43 71.13 58.89C72.22 59.36 73.32 59.76 74.42 60.1C75.51 60.44 76.61 60.72 77.71 60.94C78.81 61.16 79.9 61.33 81 61.44C82.1 61.55 83.19 61.61 84.29 61.63C85.39 61.65 86.49 61.62 87.58 61.56C88.68 61.49 89.78 61.39 90.88 61.26C91.97 61.13 93.07 60.97 94.17 60.79C95.26 60.61 96.36 60.4 97.46 60.18C98.56 59.96 99.65 59.73 100.75 59.48C101.85 59.24 102.94 58.99 104.04 58.73C105.14 58.48 106.24 58.22 107.33 57.97C108.43 57.71 109.53 57.46 110.63 57.21C111.72 56.96 112.82 56.72 113.92 56.49C115.01 56.26 116.11 56.04 117.21 55.83C118.31 55.62 119.4 55.43 120.5 55.25C121.6 55.07 122.69 54.9 123.79 54.75C124.89 54.6 125.99 54.47 127.08 54.35C128.18 54.23 129.28 54.13 130.38 54.05C131.47 53.96 132.57 53.89 133.67 53.84C134.76 53.78 135.86 53.74 136.96 53.72C138.06 53.69 139.15 53.68 140.25 53.68C141.35 53.67 142.44 53.68 143.54 53.69C144.64 53.71 145.74 53.73 146.83 53.75C147.93 53.78 149.03 53.81 150.13 53.83C151.22 53.86 152.32 53.89 153.42 53.92C154.51 53.94 155.61 53.96 156.71 53.98C157.81 53.99 158.9 54 160 54" stroke="rgb(227 174 40)" style="mix-blend-mode:screen"/><path d="M2 79.07C3.1 79.05 4.19 78.98 5.29 78.86C6.39 78.75 7.49 78.59 8.58 78.38C9.68 78.18 10.78 77.94 11.88 77.65C12.97 77.37 14.07 77.04 15.17 76.68C16.26 76.32 17.36 75.93 18.46 75.5C19.56 75.08 20.65 74.62 21.75 74.14C22.85 73.65 23.94 73.14 25.04 72.61C26.14 72.08 27.24 71.53 28.33 70.97C29.43 70.4 30.53 69.82 31.63 69.22C32.72 68.63 33.82 68.03 34.92 67.42C36.01 66.81 37.11 66.19 38.21 65.58C39.31 64.97 40.4 64.35 41.5 63.74C42.6 63.13 43.69 62.53 44.79 61.93C45.89 61.33 46.99 60.75 48.08 60.17C49.18 59.6 50.28 59.04 51.38 58.49C52.47 57.95 53.57 57.42 54.67 56.91C55.76 56.4 56.86 55.9 57.96 55.44C59.06 54.97 60.15 54.52 61.25 54.09C62.35 53.67 63.44 53.27 64.54 52.89C65.64 52.52 66.74 52.16 67.83 51.84C68.93 51.51 70.03 51.21 71.13 50.93C72.22 50.66 73.32 50.41 74.42 50.18C75.51 49.96 76.61 49.76 77.71 49.58C78.81 49.41 79.9 49.26 81 49.13C82.1 49.01 83.19 48.9 84.29 48.82C85.39 48.74 86.49 48.68 87.58 48.64C88.68 48.6 89.78 48.59 90.88 48.59C91.97 48.59 93.07 48.6 94.17 48.64C95.26 48.67 96.36 48.72 97.46 48.79C98.56 48.85 99.65 48.93 100.75 49.02C101.85 49.11 102.94 49.21 104.04 49.32C105.14 49.43 106.24 49.55 107.33 49.68C108.43 49.81 109.53 49.94 110.63 50.08C111.72 50.21 112.82 50.35 113.92 50.5C115.01 50.64 116.11 50.79 117.21 50.93C118.31 51.08 119.4 51.23 120.5 51.37C121.6 51.51 122.69 51.66 123.79 51.79C124.89 51.93 125.99 52.07 127.08 52.2C128.18 52.33 129.28 52.45 130.38 52.57C131.47 52.69 132.57 52.8 133.67 52.9C134.76 53.01 135.86 53.1 136.96 53.19C138.06 53.28 139.15 53.36 140.25 53.44C141.35 53.51 142.44 53.58 143.54 53.64C144.64 53.69 145.74 53.74 146.83 53.79C147.93 53.83 149.03 53.86 150.13 53.89C151.22 53.92 152.32 53.94 153.42 53.96C154.51 53.97 155.61 53.98 156.71 53.99C157.81 54 158.9 54 160 54" stroke="rgb(117 208 121)" style="mix-blend-mode:screen"/><path d="M2 35.85C3.1 35.79 4.19 35.82 5.29 35.95C6.39 36.08 7.49 36.3 8.58 36.62C9.68 36.94 10.78 37.34 11.88 37.83C12.97 38.32 14.07 38.89 15.17 39.54C16.26 40.18 17.36 40.9 18.46 41.67C19.56 42.45 20.65 43.29 21.75 44.17C22.85 45.05 23.94 45.98 25.04 46.94C26.14 47.9 27.24 48.89 28.33 49.89C29.43 50.9 30.53 51.91 31.63 52.93C32.72 53.95 33.82 54.96 34.92 55.95C36.01 56.95 37.11 57.92 38.21 58.86C39.31 59.8 40.4 60.71 41.5 61.56C42.6 62.41 43.69 63.22 44.79 63.95C45.89 64.69 46.99 65.37 48.08 65.97C49.18 66.56 50.28 67.09 51.38 67.53C52.47 67.96 53.57 68.32 54.67 68.58C55.76 68.85 56.86 69.03 57.96 69.11C59.06 69.2 60.15 69.2 61.25 69.1C62.35 69.01 63.44 68.83 64.54 68.57C65.64 68.31 66.74 67.97 67.83 67.55C68.93 67.14 70.03 66.65 71.13 66.11C72.22 65.56 73.32 64.96 74.42 64.31C75.51 63.67 76.61 62.98 77.71 62.27C78.81 61.55 79.9 60.81 81 60.07C82.1 59.32 83.19 58.57 84.29 57.83C85.39 57.08 86.49 56.35 87.58 55.65C88.68 54.94 89.78 54.26 90.88 53.62C91.97 52.99 93.07 52.39 94.17 51.85C95.26 51.3 96.36 50.81 97.46 50.37C98.56 49.94 99.65 49.56 100.75 49.25C101.85 48.94 102.94 48.69 104.04 48.5C105.14 48.32 106.24 48.19 107.33 48.12C108.43 48.05 109.53 48.04 110.63 48.08C111.72 48.12 112.82 48.21 113.92 48.34C115.01 48.47 116.11 48.64 117.21 48.84C118.31 49.04 119.4 49.27 120.5 49.51C121.6 49.76 122.69 50.02 123.79 50.28C124.89 50.54 125.99 50.81 127.08 51.08C128.18 51.34 129.28 51.6 130.38 51.84C131.47 52.09 132.57 52.32 133.67 52.53C134.76 52.74 135.86 52.92 136.96 53.09C138.06 53.26 139.15 53.4 140.25 53.52C141.35 53.64 142.44 53.73 143.54 53.81C144.64 53.88 145.74 53.94 146.83 53.97C147.93 54.01 149.03 54.03 150.13 54.04C151.22 54.05 152.32 54.05 153.42 54.04C154.51 54.04 155.61 54.03 156.71 54.02C157.81 54.01 158.9 54 160 54" stroke="rgb(0 207 224)" style="mix-blend-mode:screen"/><path d="M2 71.09C3.1 69.88 4.19 68.62 5.29 67.34C6.39 66.05 7.49 64.74 8.58 63.43C9.68 62.11 10.78 60.79 11.88 59.49C12.97 58.18 14.07 56.9 15.17 55.64C16.26 54.39 17.36 53.17 18.46 52C19.56 50.83 20.65 49.71 21.75 48.65C22.85 47.59 23.94 46.6 25.04 45.68C26.14 44.76 27.24 43.91 28.33 43.14C29.43 42.37 30.53 41.68 31.63 41.07C32.72 40.46 33.82 39.94 34.92 39.49C36.01 39.04 37.11 38.68 38.21 38.39C39.31 38.11 40.4 37.9 41.5 37.76C42.6 37.62 43.69 37.55 44.79 37.55C45.89 37.55 46.99 37.61 48.08 37.73C49.18 37.85 50.28 38.02 51.38 38.24C52.47 38.46 53.57 38.72 54.67 39.02C55.76 39.33 56.86 39.66 57.96 40.03C59.06 40.4 60.15 40.79 61.25 41.21C62.35 41.62 63.44 42.06 64.54 42.5C65.64 42.95 66.74 43.41 67.83 43.87C68.93 44.33 70.03 44.81 71.13 45.28C72.22 45.75 73.32 46.22 74.42 46.69C75.51 47.15 76.61 47.62 77.71 48.07C78.81 48.53 79.9 48.98 81 49.41C82.1 49.85 83.19 50.28 84.29 50.69C85.39 51.1 86.49 51.5 87.58 51.88C88.68 52.27 89.78 52.63 90.88 52.98C91.97 53.33 93.07 53.66 94.17 53.97C95.26 54.28 96.36 54.57 97.46 54.84C98.56 55.11 99.65 55.36 100.75 55.58C101.85 55.8 102.94 56 104.04 56.18C105.14 56.35 106.24 56.5 107.33 56.63C108.43 56.75 109.53 56.86 110.63 56.93C111.72 57.01 112.82 57.06 113.92 57.09C115.01 57.12 116.11 57.13 117.21 57.12C118.31 57.1 119.4 57.07 120.5 57.02C121.6 56.96 122.69 56.89 123.79 56.81C124.89 56.73 125.99 56.63 127.08 56.52C128.18 56.41 129.28 56.29 130.38 56.17C131.47 56.04 132.57 55.91 133.67 55.78C134.76 55.65 135.86 55.52 136.96 55.39C138.06 55.26 139.15 55.14 140.25 55.02C141.35 54.91 142.44 54.79 143.54 54.69C144.64 54.59 145.74 54.5 146.83 54.42C147.93 54.35 149.03 54.28 150.13 54.22C151.22 54.17 152.32 54.12 153.42 54.09C154.51 54.06 155.61 54.03 156.71 54.02C157.81 54.01 158.9 54 160 54" stroke="rgb(149 182 255)" style="mix-blend-mode:screen"/><path d="M2 42.7C3.1 43.59 4.19 44.55 5.29 45.56C6.39 46.57 7.49 47.64 8.58 48.74C9.68 49.85 10.78 50.99 11.88 52.16C12.97 53.33 14.07 54.51 15.17 55.7C16.26 56.89 17.36 58.08 18.46 59.25C19.56 60.42 20.65 61.57 21.75 62.68C22.85 63.8 23.94 64.87 25.04 65.89C26.14 66.9 27.24 67.86 28.33 68.75C29.43 69.64 30.53 70.45 31.63 71.17C32.72 71.9 33.82 72.53 34.92 73.07C36.01 73.61 37.11 74.04 38.21 74.38C39.31 74.71 40.4 74.94 41.5 75.06C42.6 75.18 43.69 75.19 44.79 75.09C45.89 75 46.99 74.79 48.08 74.49C49.18 74.19 50.28 73.79 51.38 73.3C52.47 72.81 53.57 72.22 54.67 71.57C55.76 70.91 56.86 70.17 57.96 69.38C59.06 68.58 60.15 67.73 61.25 66.83C62.35 65.93 63.44 65 64.54 64.04C65.64 63.07 66.74 62.09 67.83 61.11C68.93 60.13 70.03 59.14 71.13 58.17C72.22 57.2 73.32 56.25 74.42 55.33C75.51 54.42 76.61 53.53 77.71 52.7C78.81 51.87 79.9 51.08 81 50.36C82.1 49.64 83.19 48.98 84.29 48.39C85.39 47.8 86.49 47.28 87.58 46.83C88.68 46.38 89.78 46.01 90.88 45.71C91.97 45.41 93.07 45.19 94.17 45.03C95.26 44.88 96.36 44.8 97.46 44.79C98.56 44.77 99.65 44.82 100.75 44.93C101.85 45.03 102.94 45.2 104.04 45.4C105.14 45.61 106.24 45.86 107.33 46.15C108.43 46.43 109.53 46.75 110.63 47.09C111.72 47.42 112.82 47.78 113.92 48.14C115.01 48.51 116.11 48.88 117.21 49.25C118.31 49.61 119.4 49.98 120.5 50.33C121.6 50.68 122.69 51.01 123.79 51.33C124.89 51.64 125.99 51.94 127.08 52.21C128.18 52.47 129.28 52.72 130.38 52.93C131.47 53.14 132.57 53.33 133.67 53.48C134.76 53.64 135.86 53.77 136.96 53.87C138.06 53.98 139.15 54.05 140.25 54.11C141.35 54.16 142.44 54.2 143.54 54.21C144.64 54.23 145.74 54.23 146.83 54.22C147.93 54.21 149.03 54.19 150.13 54.17C151.22 54.14 152.32 54.12 153.42 54.09C154.51 54.07 155.61 54.04 156.71 54.03C157.81 54.01 158.9 54 160 54" stroke="rgb(231 148 236)" style="mix-blend-mode:screen"/></g><path d="M2 62.56C3.1 63.51 4.19 64.46 5.29 65.39C6.39 66.32 7.49 67.24 8.58 68.12C9.68 69.01 10.78 69.88 11.88 70.7C12.97 71.53 14.07 72.32 15.17 73.07C16.26 73.81 17.36 74.52 18.46 75.16C19.56 75.81 20.65 76.4 21.75 76.94C22.85 77.47 23.94 77.94 25.04 78.35C26.14 78.75 27.24 79.09 28.33 79.36C29.43 79.63 30.53 79.83 31.63 79.96C32.72 80.09 33.82 80.14 34.92 80.13C36.01 80.11 37.11 80.03 38.21 79.87C39.31 79.71 40.4 79.48 41.5 79.19C42.6 78.89 43.69 78.53 44.79 78.11C45.89 77.69 46.99 77.21 48.08 76.68C49.18 76.14 50.28 75.56 51.38 74.92C52.47 74.29 53.57 73.62 54.67 72.9C55.76 72.19 56.86 71.45 57.96 70.67C59.06 69.9 60.15 69.11 61.25 68.3C62.35 67.49 63.44 66.67 64.54 65.84C65.64 65.01 66.74 64.18 67.83 63.36C68.93 62.54 70.03 61.72 71.13 60.93C72.22 60.13 73.32 59.35 74.42 58.59C75.51 57.84 76.61 57.11 77.71 56.41C78.81 55.72 79.9 55.06 81 54.43C82.1 53.81 83.19 53.22 84.29 52.68C85.39 52.14 86.49 51.65 87.58 51.19C88.68 50.74 89.78 50.34 90.88 49.98C91.97 49.62 93.07 49.31 94.17 49.05C95.26 48.78 96.36 48.57 97.46 48.39C98.56 48.22 99.65 48.09 100.75 48C101.85 47.92 102.94 47.87 104.04 47.86C105.14 47.85 106.24 47.87 107.33 47.93C108.43 47.99 109.53 48.07 110.63 48.19C111.72 48.3 112.82 48.44 113.92 48.59C115.01 48.75 116.11 48.92 117.21 49.11C118.31 49.3 119.4 49.5 120.5 49.7C121.6 49.91 122.69 50.12 123.79 50.33C124.89 50.54 125.99 50.76 127.08 50.96C128.18 51.17 129.28 51.38 130.38 51.58C131.47 51.77 132.57 51.96 133.67 52.14C134.76 52.32 135.86 52.48 136.96 52.64C138.06 52.79 139.15 52.93 140.25 53.06C141.35 53.18 142.44 53.3 143.54 53.4C144.64 53.49 145.74 53.58 146.83 53.65C147.93 53.72 149.03 53.78 150.13 53.83C151.22 53.87 152.32 53.91 153.42 53.93C154.51 53.96 155.61 53.98 156.71 53.99C157.81 54 158.9 54 160 54" stroke="rgb(255 149 141)" style="mix-blend-mode:screen"/><path d="M2 42.8C3.1 41.3 4.19 39.86 5.29 38.49C6.39 37.13 7.49 35.84 8.58 34.66C9.68 33.47 10.78 32.39 11.88 31.42C12.97 30.45 14.07 29.6 15.17 28.88C16.26 28.16 17.36 27.56 18.46 27.1C19.56 26.64 20.65 26.31 21.75 26.12C22.85 25.93 23.94 25.87 25.04 25.94C26.14 26.01 27.24 26.2 28.33 26.52C29.43 26.83 30.53 27.26 31.63 27.8C32.72 28.33 33.82 28.97 34.92 29.69C36.01 30.42 37.11 31.22 38.21 32.1C39.31 32.97 40.4 33.91 41.5 34.89C42.6 35.87 43.69 36.89 44.79 37.94C45.89 38.99 46.99 40.06 48.08 41.13C49.18 42.2 50.28 43.27 51.38 44.33C52.47 45.39 53.57 46.43 54.67 47.44C55.76 48.45 56.86 49.42 57.96 50.36C59.06 51.29 60.15 52.17 61.25 53.01C62.35 53.84 63.44 54.62 64.54 55.34C65.64 56.05 66.74 56.71 67.83 57.3C68.93 57.9 70.03 58.43 71.13 58.89C72.22 59.36 73.32 59.76 74.42 60.1C75.51 60.44 76.61 60.72 77.71 60.94C78.81 61.16 79.9 61.33 81 61.44C82.1 61.55 83.19 61.61 84.29 61.63C85.39 61.65 86.49 61.62 87.58 61.56C88.68 61.49 89.78 61.39 90.88 61.26C91.97 61.13 93.07 60.97 94.17 60.79C95.26 60.61 96.36 60.4 97.46 60.18C98.56 59.96 99.65 59.73 100.75 59.48C101.85 59.24 102.94 58.99 104.04 58.73C105.14 58.48 106.24 58.22 107.33 57.97C108.43 57.71 109.53 57.46 110.63 57.21C111.72 56.96 112.82 56.72 113.92 56.49C115.01 56.26 116.11 56.04 117.21 55.83C118.31 55.62 119.4 55.43 120.5 55.25C121.6 55.07 122.69 54.9 123.79 54.75C124.89 54.6 125.99 54.47 127.08 54.35C128.18 54.23 129.28 54.13 130.38 54.05C131.47 53.96 132.57 53.89 133.67 53.84C134.76 53.78 135.86 53.74 136.96 53.72C138.06 53.69 139.15 53.68 140.25 53.68C141.35 53.67 142.44 53.68 143.54 53.69C144.64 53.71 145.74 53.73 146.83 53.75C147.93 53.78 149.03 53.81 150.13 53.83C151.22 53.86 152.32 53.89 153.42 53.92C154.51 53.94 155.61 53.96 156.71 53.98C157.81 53.99 158.9 54 160 54" stroke="rgb(227 174 40)" style="mix-blend-mode:screen"/><path d="M2 79.07C3.1 79.05 4.19 78.98 5.29 78.86C6.39 78.75 7.49 78.59 8.58 78.38C9.68 78.18 10.78 77.94 11.88 77.65C12.97 77.37 14.07 77.04 15.17 76.68C16.26 76.32 17.36 75.93 18.46 75.5C19.56 75.08 20.65 74.62 21.75 74.14C22.85 73.65 23.94 73.14 25.04 72.61C26.14 72.08 27.24 71.53 28.33 70.97C29.43 70.4 30.53 69.82 31.63 69.22C32.72 68.63 33.82 68.03 34.92 67.42C36.01 66.81 37.11 66.19 38.21 65.58C39.31 64.97 40.4 64.35 41.5 63.74C42.6 63.13 43.69 62.53 44.79 61.93C45.89 61.33 46.99 60.75 48.08 60.17C49.18 59.6 50.28 59.04 51.38 58.49C52.47 57.95 53.57 57.42 54.67 56.91C55.76 56.4 56.86 55.9 57.96 55.44C59.06 54.97 60.15 54.52 61.25 54.09C62.35 53.67 63.44 53.27 64.54 52.89C65.64 52.52 66.74 52.16 67.83 51.84C68.93 51.51 70.03 51.21 71.13 50.93C72.22 50.66 73.32 50.41 74.42 50.18C75.51 49.96 76.61 49.76 77.71 49.58C78.81 49.41 79.9 49.26 81 49.13C82.1 49.01 83.19 48.9 84.29 48.82C85.39 48.74 86.49 48.68 87.58 48.64C88.68 48.6 89.78 48.59 90.88 48.59C91.97 48.59 93.07 48.6 94.17 48.64C95.26 48.67 96.36 48.72 97.46 48.79C98.56 48.85 99.65 48.93 100.75 49.02C101.85 49.11 102.94 49.21 104.04 49.32C105.14 49.43 106.24 49.55 107.33 49.68C108.43 49.81 109.53 49.94 110.63 50.08C111.72 50.21 112.82 50.35 113.92 50.5C115.01 50.64 116.11 50.79 117.21 50.93C118.31 51.08 119.4 51.23 120.5 51.37C121.6 51.51 122.69 51.66 123.79 51.79C124.89 51.93 125.99 52.07 127.08 52.2C128.18 52.33 129.28 52.45 130.38 52.57C131.47 52.69 132.57 52.8 133.67 52.9C134.76 53.01 135.86 53.1 136.96 53.19C138.06 53.28 139.15 53.36 140.25 53.44C141.35 53.51 142.44 53.58 143.54 53.64C144.64 53.69 145.74 53.74 146.83 53.79C147.93 53.83 149.03 53.86 150.13 53.89C151.22 53.92 152.32 53.94 153.42 53.96C154.51 53.97 155.61 53.98 156.71 53.99C157.81 54 158.9 54 160 54" stroke="rgb(117 208 121)" style="mix-blend-mode:screen"/><path d="M2 35.85C3.1 35.79 4.19 35.82 5.29 35.95C6.39 36.08 7.49 36.3 8.58 36.62C9.68 36.94 10.78 37.34 11.88 37.83C12.97 38.32 14.07 38.89 15.17 39.54C16.26 40.18 17.36 40.9 18.46 41.67C19.56 42.45 20.65 43.29 21.75 44.17C22.85 45.05 23.94 45.98 25.04 46.94C26.14 47.9 27.24 48.89 28.33 49.89C29.43 50.9 30.53 51.91 31.63 52.93C32.72 53.95 33.82 54.96 34.92 55.95C36.01 56.95 37.11 57.92 38.21 58.86C39.31 59.8 40.4 60.71 41.5 61.56C42.6 62.41 43.69 63.22 44.79 63.95C45.89 64.69 46.99 65.37 48.08 65.97C49.18 66.56 50.28 67.09 51.38 67.53C52.47 67.96 53.57 68.32 54.67 68.58C55.76 68.85 56.86 69.03 57.96 69.11C59.06 69.2 60.15 69.2 61.25 69.1C62.35 69.01 63.44 68.83 64.54 68.57C65.64 68.31 66.74 67.97 67.83 67.55C68.93 67.14 70.03 66.65 71.13 66.11C72.22 65.56 73.32 64.96 74.42 64.31C75.51 63.67 76.61 62.98 77.71 62.27C78.81 61.55 79.9 60.81 81 60.07C82.1 59.32 83.19 58.57 84.29 57.83C85.39 57.08 86.49 56.35 87.58 55.65C88.68 54.94 89.78 54.26 90.88 53.62C91.97 52.99 93.07 52.39 94.17 51.85C95.26 51.3 96.36 50.81 97.46 50.37C98.56 49.94 99.65 49.56 100.75 49.25C101.85 48.94 102.94 48.69 104.04 48.5C105.14 48.32 106.24 48.19 107.33 48.12C108.43 48.05 109.53 48.04 110.63 48.08C111.72 48.12 112.82 48.21 113.92 48.34C115.01 48.47 116.11 48.64 117.21 48.84C118.31 49.04 119.4 49.27 120.5 49.51C121.6 49.76 122.69 50.02 123.79 50.28C124.89 50.54 125.99 50.81 127.08 51.08C128.18 51.34 129.28 51.6 130.38 51.84C131.47 52.09 132.57 52.32 133.67 52.53C134.76 52.74 135.86 52.92 136.96 53.09C138.06 53.26 139.15 53.4 140.25 53.52C141.35 53.64 142.44 53.73 143.54 53.81C144.64 53.88 145.74 53.94 146.83 53.97C147.93 54.01 149.03 54.03 150.13 54.04C151.22 54.05 152.32 54.05 153.42 54.04C154.51 54.04 155.61 54.03 156.71 54.02C157.81 54.01 158.9 54 160 54" stroke="rgb(0 207 224)" style="mix-blend-mode:screen"/><path d="M2 71.09C3.1 69.88 4.19 68.62 5.29 67.34C6.39 66.05 7.49 64.74 8.58 63.43C9.68 62.11 10.78 60.79 11.88 59.49C12.97 58.18 14.07 56.9 15.17 55.64C16.26 54.39 17.36 53.17 18.46 52C19.56 50.83 20.65 49.71 21.75 48.65C22.85 47.59 23.94 46.6 25.04 45.68C26.14 44.76 27.24 43.91 28.33 43.14C29.43 42.37 30.53 41.68 31.63 41.07C32.72 40.46 33.82 39.94 34.92 39.49C36.01 39.04 37.11 38.68 38.21 38.39C39.31 38.11 40.4 37.9 41.5 37.76C42.6 37.62 43.69 37.55 44.79 37.55C45.89 37.55 46.99 37.61 48.08 37.73C49.18 37.85 50.28 38.02 51.38 38.24C52.47 38.46 53.57 38.72 54.67 39.02C55.76 39.33 56.86 39.66 57.96 40.03C59.06 40.4 60.15 40.79 61.25 41.21C62.35 41.62 63.44 42.06 64.54 42.5C65.64 42.95 66.74 43.41 67.83 43.87C68.93 44.33 70.03 44.81 71.13 45.28C72.22 45.75 73.32 46.22 74.42 46.69C75.51 47.15 76.61 47.62 77.71 48.07C78.81 48.53 79.9 48.98 81 49.41C82.1 49.85 83.19 50.28 84.29 50.69C85.39 51.1 86.49 51.5 87.58 51.88C88.68 52.27 89.78 52.63 90.88 52.98C91.97 53.33 93.07 53.66 94.17 53.97C95.26 54.28 96.36 54.57 97.46 54.84C98.56 55.11 99.65 55.36 100.75 55.58C101.85 55.8 102.94 56 104.04 56.18C105.14 56.35 106.24 56.5 107.33 56.63C108.43 56.75 109.53 56.86 110.63 56.93C111.72 57.01 112.82 57.06 113.92 57.09C115.01 57.12 116.11 57.13 117.21 57.12C118.31 57.1 119.4 57.07 120.5 57.02C121.6 56.96 122.69 56.89 123.79 56.81C124.89 56.73 125.99 56.63 127.08 56.52C128.18 56.41 129.28 56.29 130.38 56.17C131.47 56.04 132.57 55.91 133.67 55.78C134.76 55.65 135.86 55.52 136.96 55.39C138.06 55.26 139.15 55.14 140.25 55.02C141.35 54.91 142.44 54.79 143.54 54.69C144.64 54.59 145.74 54.5 146.83 54.42C147.93 54.35 149.03 54.28 150.13 54.22C151.22 54.17 152.32 54.12 153.42 54.09C154.51 54.06 155.61 54.03 156.71 54.02C157.81 54.01 158.9 54 160 54" stroke="rgb(149 182 255)" style="mix-blend-mode:screen"/><path d="M2 42.7C3.1 43.59 4.19 44.55 5.29 45.56C6.39 46.57 7.49 47.64 8.58 48.74C9.68 49.85 10.78 50.99 11.88 52.16C12.97 53.33 14.07 54.51 15.17 55.7C16.26 56.89 17.36 58.08 18.46 59.25C19.56 60.42 20.65 61.57 21.75 62.68C22.85 63.8 23.94 64.87 25.04 65.89C26.14 66.9 27.24 67.86 28.33 68.75C29.43 69.64 30.53 70.45 31.63 71.17C32.72 71.9 33.82 72.53 34.92 73.07C36.01 73.61 37.11 74.04 38.21 74.38C39.31 74.71 40.4 74.94 41.5 75.06C42.6 75.18 43.69 75.19 44.79 75.09C45.89 75 46.99 74.79 48.08 74.49C49.18 74.19 50.28 73.79 51.38 73.3C52.47 72.81 53.57 72.22 54.67 71.57C55.76 70.91 56.86 70.17 57.96 69.38C59.06 68.58 60.15 67.73 61.25 66.83C62.35 65.93 63.44 65 64.54 64.04C65.64 63.07 66.74 62.09 67.83 61.11C68.93 60.13 70.03 59.14 71.13 58.17C72.22 57.2 73.32 56.25 74.42 55.33C75.51 54.42 76.61 53.53 77.71 52.7C78.81 51.87 79.9 51.08 81 50.36C82.1 49.64 83.19 48.98 84.29 48.39C85.39 47.8 86.49 47.28 87.58 46.83C88.68 46.38 89.78 46.01 90.88 45.71C91.97 45.41 93.07 45.19 94.17 45.03C95.26 44.88 96.36 44.8 97.46 44.79C98.56 44.77 99.65 44.82 100.75 44.93C101.85 45.03 102.94 45.2 104.04 45.4C105.14 45.61 106.24 45.86 107.33 46.15C108.43 46.43 109.53 46.75 110.63 47.09C111.72 47.42 112.82 47.78 113.92 48.14C115.01 48.51 116.11 48.88 117.21 49.25C118.31 49.61 119.4 49.98 120.5 50.33C121.6 50.68 122.69 51.01 123.79 51.33C124.89 51.64 125.99 51.94 127.08 52.21C128.18 52.47 129.28 52.72 130.38 52.93C131.47 53.14 132.57 53.33 133.67 53.48C134.76 53.64 135.86 53.77 136.96 53.87C138.06 53.98 139.15 54.05 140.25 54.11C141.35 54.16 142.44 54.2 143.54 54.21C144.64 54.23 145.74 54.23 146.83 54.22C147.93 54.21 149.03 54.19 150.13 54.17C151.22 54.14 152.32 54.12 153.42 54.09C154.51 54.07 155.61 54.04 156.71 54.03C157.81 54.01 158.9 54 160 54" stroke="rgb(231 148 236)" style="mix-blend-mode:screen"/><path d="M160 54H214" stroke="#ffffff"/></g><path d="M261.25 13.75Q209.75 13.75 165.625 3.25Q121.5 -7.25 89.25 -30.25Q57.0 -53.25 40.25 -91.5Q23.5 -129.75 26.75 -184.25L146.25 -195.0Q146.5 -156.0 161.0 -131.75Q175.5 -107.5 202.125 -96.625Q228.75 -85.75 265.5 -85.75Q307.0 -85.75 333.25 -99.75Q359.5 -113.75 359.5 -142.5Q359.5 -161.25 347.875 -172.375Q336.25 -183.5 311.0 -191.5Q285.75 -199.5 244.75 -208.75Q197.75 -220.0 158.25 -231.75Q118.75 -243.5 89.875 -260.75Q61 -278 45.5 -304.375Q30.0 -330.75 30.0 -370.5Q30.0 -422.75 57.875 -460.0Q85.75 -497.25 135.375 -517.375Q185.0 -537.5 250.5 -537.5Q310.0 -537.5 361.125 -518.5Q412.25 -499.5 441.75 -457.25Q471.25 -415.0 464.75 -346.0L347.75 -333.75Q350.75 -367.75 337.75 -390.625Q324.75 -413.5 300.5 -425.0Q276.25 -436.5 243.0 -436.5Q203.0 -436.5 180.125 -421.0Q157.25 -405.5 157.25 -380.5Q157.25 -360.0 171.375 -347.375Q185.5 -334.75 212.875 -327.0Q240.25 -319.25 279.75 -310.75Q314.25 -304.0 350.75 -293.875Q387.25 -283.75 418.375 -266.125Q449.5 -248.5 468.875 -219.25Q488.25 -190.0 488.25 -144.5Q488.25 -96.5 461.625 -60.75Q435 -25 384.5 -5.625Q334.0 13.75 261.25 13.75ZM684.75 13.75Q644.5 13.75 609.125 -0.5Q573.75 -14.75 551.625 -46.125Q529.5 -77.5 529.5 -129.25Q529.5 -176.75 547.75 -206.625Q566.0 -236.5 597.375 -254.875Q628.75 -273.25 667.25 -283.0Q705.75 -292.75 745.5 -299.75Q799.25 -309.5 825.75 -315.375Q852.25 -321.25 861.375 -329.625Q870.5 -338.0 870.5 -353.0Q870.5 -389.5 844.875 -408.75Q819.25 -428.0 779.25 -428.0Q754.5 -428.0 730.0 -418.75Q705.5 -409.5 689.375 -387.125Q673.25 -364.75 672.75 -325.0L551.0 -335.75Q551.25 -394.5 571.875 -433.625Q592.5 -472.75 626.875 -495.375Q661.25 -518.0 702.0 -527.75Q742.75 -537.5 783.25 -537.5Q854.75 -537.5 903.625 -510.75Q952.5 -484.0 977.625 -432.375Q1002.75 -380.75 1002.75 -305.25V-209.75Q1003 -175 1003.125 -139.75Q1003.25 -104.5 1003.375 -69.625Q1003.5 -34.75 1003.5 0.0H884Q885.25 -39.5 886.25 -78.875Q887.25 -118.25 888.25 -161.75H881.5Q876.25 -113.25 850.125 -73.375Q824.0 -33.5 781.875 -9.875Q739.75 13.75 684.75 13.75ZM736.0 -88.25Q758.25 -88.25 781.625 -97.125Q805 -106 825.0 -124.75Q845.0 -143.5 857.5 -173.375Q870.0 -203.25 870.5 -244.5L870.75 -268.0L897.5 -273.0Q888.25 -259.0 867.375 -250.875Q846.5 -242.75 820.125 -238.125Q793.75 -233.5 766.875 -228.625Q740.0 -223.75 717.0 -215.0Q694.0 -206.25 679.75 -191.25Q665.5 -176.25 665.5 -150.0Q665.5 -120.75 685.125 -104.5Q704.75 -88.25 736.0 -88.25ZM1261.0 153.75Q1228.0 153.75 1191.625 147.5Q1155.25 141.25 1121.0 127.75Q1086.75 114.25 1058.75 93.5L1098.25 -36.5Q1131.25 -1.0 1174.375 13.5Q1217.5 28.0 1255.5 28.0Q1310.5 28.0 1345.25 5.125Q1380.0 -17.75 1396.375 -59.375Q1412.75 -101.0 1412.75 -157.25L1416.5 -260.0H1407.75Q1403.75 -186.5 1381.375 -140.5Q1359.0 -94.5 1322.75 -73.25Q1286.5 -52.0 1240 -52Q1182 -52 1144.625 -81.5Q1107.25 -111.0 1088.75 -168.25Q1070.25 -225.5 1070.25 -308.25V-523.5H1205.0V-341Q1205 -253 1225.875 -211.875Q1246.75 -170.75 1292.0 -170.75Q1316.5 -170.75 1336.0 -182.875Q1355.5 -195.0 1368.75 -219.75Q1382.0 -244.5 1388.875 -281.75Q1395.75 -319.0 1395.75 -368.25V-523.5H1530.5V-153.0Q1530.5 -107.0 1521.75 -62.25Q1513.0 -17.5 1493.75 21.375Q1474.5 60.25 1443.375 90.125Q1412.25 120.0 1367.125 136.875Q1322.0 153.75 1261.0 153.75ZM1829.25 13.75Q1777.75 13.75 1733.625 3.25Q1689.5 -7.25 1657.25 -30.25Q1625.0 -53.25 1608.25 -91.5Q1591.5 -129.75 1594.75 -184.25L1714.25 -195.0Q1714.5 -156.0 1729.0 -131.75Q1743.5 -107.5 1770.125 -96.625Q1796.75 -85.75 1833.5 -85.75Q1875.0 -85.75 1901.25 -99.75Q1927.5 -113.75 1927.5 -142.5Q1927.5 -161.25 1915.875 -172.375Q1904.25 -183.5 1879.0 -191.5Q1853.75 -199.5 1812.75 -208.75Q1765.75 -220.0 1726.25 -231.75Q1686.75 -243.5 1657.875 -260.75Q1629 -278 1613.5 -304.375Q1598.0 -330.75 1598.0 -370.5Q1598.0 -422.75 1625.875 -460.0Q1653.75 -497.25 1703.375 -517.375Q1753.0 -537.5 1818.5 -537.5Q1878.0 -537.5 1929.125 -518.5Q1980.25 -499.5 2009.75 -457.25Q2039.25 -415.0 2032.75 -346.0L1915.75 -333.75Q1918.75 -367.75 1905.75 -390.625Q1892.75 -413.5 1868.5 -425.0Q1844.25 -436.5 1811.0 -436.5Q1771.0 -436.5 1748.125 -421.0Q1725.25 -405.5 1725.25 -380.5Q1725.25 -360.0 1739.375 -347.375Q1753.5 -334.75 1780.875 -327.0Q1808.25 -319.25 1847.75 -310.75Q1882.25 -304.0 1918.75 -293.875Q1955.25 -283.75 1986.375 -266.125Q2017.5 -248.5 2036.875 -219.25Q2056.25 -190.0 2056.25 -144.5Q2056.25 -96.5 2029.625 -60.75Q2003 -25 1952.5 -5.625Q1902.0 13.75 1829.25 13.75ZM2308.5 11.0Q2224.25 11.0 2182.0 -33.375Q2139.75 -77.75 2139.75 -168.75V-416.0H2079.25V-505.25H2091.0Q2142.5 -511.25 2164.375 -538.75Q2186.25 -566.25 2191.0 -621.5L2192.75 -640.75H2273.75V-523.5H2400.5V-413.0H2273.75V-180.0Q2273.75 -141.5 2292.125 -124.5Q2310.5 -107.5 2339.25 -107.5Q2354.5 -107.5 2370.875 -112.0Q2387.25 -116.5 2400.5 -125.0V-3.75Q2373.0 4.75 2350.375 7.875Q2327.75 11.0 2308.5 11.0ZM2596.75 13.75Q2556.5 13.75 2521.125 -0.5Q2485.75 -14.75 2463.625 -46.125Q2441.5 -77.5 2441.5 -129.25Q2441.5 -176.75 2459.75 -206.625Q2478.0 -236.5 2509.375 -254.875Q2540.75 -273.25 2579.25 -283.0Q2617.75 -292.75 2657.5 -299.75Q2711.25 -309.5 2737.75 -315.375Q2764.25 -321.25 2773.375 -329.625Q2782.5 -338.0 2782.5 -353.0Q2782.5 -389.5 2756.875 -408.75Q2731.25 -428.0 2691.25 -428.0Q2666.5 -428.0 2642.0 -418.75Q2617.5 -409.5 2601.375 -387.125Q2585.25 -364.75 2584.75 -325.0L2463.0 -335.75Q2463.25 -394.5 2483.875 -433.625Q2504.5 -472.75 2538.875 -495.375Q2573.25 -518.0 2614.0 -527.75Q2654.75 -537.5 2695.25 -537.5Q2766.75 -537.5 2815.625 -510.75Q2864.5 -484.0 2889.625 -432.375Q2914.75 -380.75 2914.75 -305.25V-209.75Q2915 -175 2915.125 -139.75Q2915.25 -104.5 2915.375 -69.625Q2915.5 -34.75 2915.5 0.0H2796Q2797.25 -39.5 2798.25 -78.875Q2799.25 -118.25 2800.25 -161.75H2793.5Q2788.25 -113.25 2762.125 -73.375Q2736.0 -33.5 2693.875 -9.875Q2651.75 13.75 2596.75 13.75ZM2648.0 -88.25Q2670.25 -88.25 2693.625 -97.125Q2717 -106 2737.0 -124.75Q2757.0 -143.5 2769.5 -173.375Q2782.0 -203.25 2782.5 -244.5L2782.75 -268.0L2809.5 -273.0Q2800.25 -259.0 2779.375 -250.875Q2758.5 -242.75 2732.125 -238.125Q2705.75 -233.5 2678.875 -228.625Q2652.0 -223.75 2629.0 -215.0Q2606.0 -206.25 2591.75 -191.25Q2577.5 -176.25 2577.5 -150.0Q2577.5 -120.75 2597.125 -104.5Q2616.75 -88.25 2648.0 -88.25ZM3234.0 13.75Q3167.0 13.75 3117.875 -7.0Q3068.75 -27.75 3037.0 -65.0Q3005.25 -102.25 2990.0 -151.375Q2974.75 -200.5 2974.75 -257.25Q2974.75 -314.25 2990.0 -364.5Q3005.25 -414.75 3036.375 -454.125Q3067.5 -493.5 3116.0 -515.5Q3164.5 -537.5 3231.0 -537.5Q3310.25 -537.5 3359.875 -507.5Q3409.5 -477.5 3430.75 -429.75Q3452 -382 3445.5 -326.5L3326.75 -315.75Q3328.0 -353.75 3316.0 -378.875Q3304 -404 3281.75 -416.625Q3259.5 -429.25 3229.25 -429.25Q3204.0 -429.25 3182.5 -420.0Q3161.0 -410.75 3145.0 -390.75Q3129.0 -370.75 3120.125 -339.625Q3111.25 -308.5 3111.25 -263.75Q3111.25 -206.25 3126.5 -167.375Q3141.75 -128.5 3169.75 -109.125Q3197.75 -89.75 3236.25 -89.75Q3276.75 -89.75 3299.5 -108.375Q3322.25 -127.0 3331.0 -156.375Q3339.75 -185.75 3336.75 -216.5L3462.25 -209.5Q3466.5 -164.75 3455.125 -124.375Q3443.75 -84.0 3415.375 -52.75Q3387.0 -21.5 3341.875 -3.875Q3296.75 13.75 3234.0 13.75ZM3520 0V-692.5H3652.5V-319.5Q3690.5 -335.75 3720.5 -359.5Q3750.5 -383.25 3772.75 -411.375Q3795.0 -439.5 3808.875 -468.5Q3822.75 -497.5 3829 -524H3983.25Q3973.25 -486.25 3952.125 -449.25Q3931.0 -412.25 3899.5 -379.25Q3868.0 -346.25 3827.125 -320.125Q3786.25 -294.0 3737.5 -278.0V-270.0Q3800.25 -278.25 3840.75 -269.5Q3881.25 -260.75 3905.125 -239.5Q3929.0 -218.25 3942.0 -187.5Q3955.0 -156.75 3962.5 -120.25L3987 0H3840.75L3828.25 -85.0Q3822.5 -122.0 3811.75 -151.625Q3801.0 -181.25 3775.25 -199.0Q3749.5 -216.75 3698.5 -217.0L3652.5 -217.25V0.0Z" fill="#eceef2" transform="translate(232 70.77) scale(0.06400)"/></svg>
